#!OML:ASF F:\twosubjects\two\wednesday\Session 1\rory1.ASF
:FULLY-SPECIFIED
:DEGREES
184
root 1.00911 17.0182 -21.2952 -200.881 57.1937 155.576
lowerback 15.4826 -0.112271 -12.24
upperback 4.00429 -1.75489 -4.17581
thorax -4.09409 -0.569058 2.74522
lowerneck -5.2183 -12.0792 -13.7287
upperneck -4.75816 -15.2961 22.4652
head 2.45674 -7.26883 8.23334
rclavicle 5.84924e-014 -5.52621e-014
rhumerus -15.0525 57.7202 -43.4953
rradius 85.9252
rwrist -28.2476
rhand -6.76527 25.4491
rfingers 7.12502
rthumb 19.0966 -3.63337
lclavicle 5.84924e-014 -5.52621e-014
lhumerus -20.6082 1.98719 37.3141
lradius 33.1997
lwrist 15.8496
lhand -29.6939 20.0864
lfingers 7.12502
lthumb -3.02186 50.0448
rfemur -60.7847 -19.6911 13.9579
rtibia 130.047
rfoot -9.07062 16.8087
rtoes 12.8777
lfemur -14.4492 -6.75537 -20.3095
ltibia 36.447
lfoot -11.0268 -3.232
ltoes -34.2135
185
root 1.2038 17.1705 -21.3903 -203.291 56.7279 153.529
lowerback 16.0003 -0.468253 -13.0833
upperback 3.83563 -2.44293 -4.94349
thorax -4.452 -0.844992 2.51538
lowerneck -5.09712 -11.8489 -12.7316
upperneck -4.5896 -15.0357 22.6259
head 2.37635 -7.1431 8.16304
rclavicle -3.02153e-014 2.70347e-014
rhumerus -16.3154 57.6578 -46.5315
rradius 85.6196
rwrist -26.4626
rhand -7.08394 25.9741
rfingers 7.12502
rthumb 18.7901 -3.13835
lclavicle -3.02153e-014 2.70347e-014
lhumerus -20.8039 0.443394 36.814
lradius 34.2743
lwrist 15.382
lhand -29.5834 19.3762
lfingers 7.12502
lthumb -2.91515 49.336
rfemur -61.8006 -21.7675 11.4891
rtibia 129.885
rfoot -9.75568 16.9036
rtoes 6.6721
lfemur -11.6335 -7.01823 -22.023
ltibia 34.0582
lfoot -9.14713 -1.9116
ltoes -34.478
186
root 1.46762 17.2678 -21.4906 -212.675 53.8386 143.581
lowerback 16.0998 -0.00582079 -19.5118
upperback 3.86996 -2.67476 -6.72452
thorax -4.10371 -0.786224 4.03746
lowerneck -4.91203 -12.0535 -12.3029
upperneck -4.43412 -15.3735 22.7098
head 2.42221 -7.3157 8.08838
rclavicle 9.78021e-014 7.7526e-014
rhumerus -18.9275 57.078 -49.7364
rradius 85.6781
rwrist -24.6489
rhand -7.32365 26.5777
rfingers 7.12502
rthumb 18.5595 -2.5569
lclavicle 9.78021e-014 7.7526e-014
lhumerus -20.2575 -1.10119 37.0085
lradius 34.9199
lwrist 14.478
lhand -29.3901 18.4256
lfingers 7.12502
lthumb -2.72847 48.3879
rfemur -61.9041 -27.446 1.01351
rtibia 130.24
rfoot -10.4379 21.4062
rtoes 8.11976
lfemur -8.27493 -7.28543 -29.4849
ltibia 32.044
lfoot -7.52031 -0.380925
ltoes -34.477
187
root 1.64979 17.4972 -21.5636 -211.458 55.0129 145.103
lowerback 14.7843 -0.305098 -19.0236
upperback 4.57169 -2.58273 -5.6832
thorax -2.60332 -0.953113 4.87065
lowerneck -6.01305 -12.2168 -12.5344
upperneck -4.90185 -15.4148 22.6586
head 2.49394 -7.28064 8.04921
rclavicle -5.45664e-014 -2.26615e-014
rhumerus -16.0827 56.8792 -47.3687
rradius 85.3617
rwrist -23.5651
rhand -8.17713 27.5696
rfingers 7.12502
rthumb 17.7384 -1.64137
lclavicle -5.45664e-014 -2.26615e-014
lhumerus -19.6599 0.541086 38.2257
lradius 35.1261
lwrist 13.2165
lhand -29.624 16.9982
lfingers 7.12502
lthumb -2.95433 46.9574
rfemur -65.2868 -25.2412 4.25633
rtibia 128.893
rfoot -12.0484 16.4858
rtoes -4.77715
lfemur -7.03935 -7.24417 -28.1279
ltibia 30.7382
lfoot -5.50852 0.627206
ltoes -32.0167
188
root 1.77324 17.7246 -21.5944 -202.979 58.4326 154.373
lowerback 15.4314 -0.488675 -11.3407
upperback 3.74586 -2.16462 -4.94283
thorax -4.36755 -0.750874 1.50788
lowerneck -5.79447 -12.842 -11.9988
upperneck -4.64196 -16.3719 23.1797
head 2.70825 -7.74485 8.01256
rclavicle 1.2424e-014 1.35174e-014
rhumerus -19.9295 55.7191 -51.9711
rradius 84.6002
rwrist -22.1103
rhand -9.18315 28.4847
rfingers 7.12502
rthumb 16.7701 -0.811073
lclavicle 1.2424e-014 1.35174e-014
lhumerus -18.3298 -2.14128 38.2141
lradius 35.5367
lwrist 13.3581
lhand -29.8326 15.8605
lfingers 7.12502
lthumb -3.15583 45.8169
rfemur -68.0285 -20.7247 12.4688
rtibia 127.413
rfoot -10.6444 12.408
rtoes 0.889423
lfemur -7.34073 -6.8437 -21.1765
ltibia 29.971
lfoot -2.87929 1.16381
ltoes -30.0339
189
root 1.93871 17.8984 -21.5792 -198.392 59.5151 158.907
lowerback 15.1275 -0.799287 -9.70508
upperback 3.46709 -2.36678 -3.88719
thorax -4.52254 -0.902431 1.76854
lowerneck -6.35835 -12.9849 -11.5439
upperneck -4.52994 -16.5579 22.9829
head 2.80443 -7.80084 7.82002
rclavicle 9.24349e-015 2.8625e-014
rhumerus -19.4972 55.6031 -52.6389
rradius 83.5039
rwrist -20.6791
rhand -9.9657 28.7055
rfingers 7.12502
rthumb 16.0167 -0.65246
lclavicle 9.24349e-015 2.8625e-014
lhumerus -18.2579 -2.57068 38.6953
lradius 35.8808
lwrist 13.4817
lhand -29.8068 15.2429
lfingers 7.12502
lthumb -3.13091 45.1996
rfemur -71.219 -18.6798 16.3917
rtibia 126.091
rfoot -10.4344 8.80184
rtoes -2.04269
lfemur -8.02479 -6.60934 -17.9454
ltibia 29.9004
lfoot -0.116005 1.62291
ltoes -29.0751
190
root 2.12256 18.0663 -21.622 -197.998 60.2095 159.497
lowerback 15.0966 -0.822318 -9.35175
upperback 3.27778 -2.37625 -3.63171
thorax -4.71558 -0.912613 1.84834
lowerneck -6.10172 -12.8952 -11.6418
upperneck -4.40321 -16.4738 22.9846
head 2.79254 -7.77359 7.85939
rclavicle -1.49089e-015 5.28767e-014
rhumerus -20.42 55.4617 -54.142
rradius 82.5911
rwrist -19.1895
rhand -10.6047 28.8408
rfingers 7.12502
rthumb 15.4013 -0.565458
lclavicle -1.49089e-015 5.28767e-014
lhumerus -18.1365 -3.38311 39.225
lradius 36.0223
lwrist 13.7702
lhand -30.1082 15.0969
lfingers 7.12502
lthumb -3.42192 45.0492
rfemur -73.0261 -17.8598 16.6634
rtibia 125.152
rfoot -10.627 7.32299
rtoes -2.52569
lfemur -7.57049 -6.70904 -17.4259
ltibia 30.0342
lfoot 1.90437 3.04071
ltoes -26.2618
191
root 2.30871 18.2181 -21.6718 -198.395 60.9275 159.232
lowerback 16.2411 -0.533537 -8.10701
upperback 2.15578 -2.10723 -4.22623
thorax -6.65728 -0.72687 0.496998
lowerneck -4.59263 -13.0303 -11.869
upperneck -3.83725 -16.8823 23.3305
head 2.82985 -8.04471 8.0306
rclavicle -5.14852e-014 -1.98785e-014
rhumerus -25.8218 54.5687 -59.4683
rradius 82.6408
rwrist -17.51
rhand -11.0201 28.839
rfingers 7.12502
rthumb 15.0012 -0.597616
lclavicle -5.14852e-014 -1.98785e-014
lhumerus -18.0161 -6.44337 39.2871
lradius 36.3055
lwrist 14.3814
lhand -30.3308 15.3289
lfingers 7.12502
lthumb -3.63696 45.2776
rfemur -74.163 -17.0844 15.8541
rtibia 123.904
rfoot -10.2136 7.42253
rtoes 7.38509
lfemur -6.89808 -6.84484 -17.406
ltibia 29.7282
lfoot 4.37119 4.64497
ltoes -24.5618
192
root 2.49318 18.3632 -21.7276 -198.37 61.6214 159.448
lowerback 14.949 -0.885277 -9.17069
upperback 2.90342 -2.47612 -3.22475
thorax -5.01984 -0.963943 2.2
lowerneck -5.52995 -12.6566 -13.0591
upperneck -3.8217 -16.2644 23.6551
head 3.02519 -7.67407 8.33846
rclavicle 9.19379e-015 6.16232e-015
rhumerus -21.9492 55.4422 -56.6896
rradius 81.7819
rwrist -16.6117
rhand -11.4885 29.1687
rfingers 7.12502
rthumb 14.5498 -0.301054
lclavicle 9.19379e-015 6.16232e-015
lhumerus -18.6607 -4.27166 40.2351
lradius 36.3355
lwrist 14.3044
lhand -30.1143 15.547
lfingers 7.12502
lthumb -3.42785 45.4992
rfemur -75.1411 -16.6246 15.0075
rtibia 122.95
rfoot -9.7105 8.31344
rtoes 22.8556
lfemur -6.26424 -6.97077 -17.1809
ltibia 29.3613
lfoot 7.30912 6.10155
ltoes -22.3674
193
root 2.68251 18.5164 -21.7806 -198.081 62.5983 159.933
lowerback 13.6848 -1.05006 -10.0003
upperback 3.70015 -2.54562 -2.2241
thorax -3.37781 -1.09092 3.68067
lowerneck -6.87997 -12.1918 -13.9064
upperneck -3.66003 -15.474 23.6591
head 3.22695 -7.19026 8.5015
rclavicle -4.39811e-015 1.83876e-014
rhumerus -18.0523 55.9416 -53.9156
rradius 80.5192
rwrist -15.8083
rhand -11.9192 29.431
rfingers 7.12502
rthumb 14.1348 -0.0681938
lclavicle -4.39811e-015 1.83876e-014
lhumerus -18.7658 -2.34734 41.2513
lradius 36.2103
lwrist 14.2941
lhand -29.3412 15.8852
lfingers 7.12502
lthumb -2.68122 45.8481
rfemur -76.4256 -15.0718 15.842
rtibia 120.838
rfoot -10.1382 4.57361
rtoes 10.7914
lfemur -5.71642 -7.02114 -16.7794
ltibia 29.2078
lfoot 10.6013 7.12436
ltoes -21.1803
194
root 2.86912 18.6484 -21.8276 -198.545 63.7878 159.546
lowerback 13.7827 -0.599153 -9.59148
upperback 3.51528 -1.94005 -2.36022
thorax -3.73298 -0.777089 3.22261
lowerneck -7.05069 -12.8781 -11.0017
upperneck -4.40618 -16.3874 21.538
head 2.71802 -7.71397 7.27194
rclavicle 1.63252e-014 -6.47044e-014
rhumerus -20.3892 55.2437 -56.0628
rradius 80.6242
rwrist -14.8497
rhand -12.3255 28.7964
rfingers 7.12502
rthumb 13.7433 -0.729753
lclavicle 1.63252e-014 -6.47044e-014
lhumerus -18.0399 -3.53682 41.6166
lradius 36.2154
lwrist 14.8696
lhand -28.7445 16.3271
lfingers 7.12502
lthumb -2.10495 46.2965
rfemur -77.5387 -13.4002 15.846
rtibia 118.934
rfoot -9.66268 2.55928
rtoes 6.01997
lfemur -5.3466 -6.90463 -16.7444
ltibia 29.3255
lfoot 15.1661 5.34664
ltoes -32.8314
195
root 3.05421 18.7669 -21.8783 -199.608 64.6919 158.496
lowerback 13.7966 -0.656908 -9.73119
upperback 3.20547 -2.08149 -2.24812
thorax -4.04494 -0.833049 3.44646
lowerneck -7.24902 -12.6784 -11.6764
upperneck -3.43489 -16.2285 21.5334
head 3.0637 -7.5908 7.35764
rclavicle 3.79306e-014 2.41523e-014
rhumerus -24.2458 54.9192 -57.4954
rradius 84.5618
rwrist -13.1745
rhand -11.9313 26.9326
rfingers 7.12502
rthumb 14.1232 -2.5674
lclavicle 3.79306e-014 2.41523e-014
lhumerus -19.0163 -3.46142 41.9097
lradius 36.3622
lwrist 14.9529
lhand -28.5684 16.3907
lfingers 7.12502
lthumb -1.93488 46.3617
rfemur -78.4774 -12.1162 14.9475
rtibia 117.28
rfoot -9.07082 1.79355
rtoes 12.7843
lfemur -5.1432 -6.84618 -17.1227
ltibia 29.7126
lfoot 13.8009 11.249
ltoes -12.3056
196
root 3.23964 18.8796 -21.9286 -200.249 65.4187 157.902
lowerback 13.6959 -0.737155 -9.60941
upperback 3.09515 -2.17711 -2.19216
thorax -4.09936 -0.881148 3.45248
lowerneck -7.77853 -12.6155 -11.946
upperneck -2.5321 -16.234 21.5154
head 3.43558 -7.53046 7.34274
rclavicle 4.88824e-014 -2.99916e-014
rhumerus -21.8566 54.7023 -58.4531
rradius 79.5041
rwrist -11.9833
rhand -12.8347 29.1407
rfingers 7.12502
rthumb 13.2525 -0.418034
lclavicle 4.88824e-014 -2.99916e-014
lhumerus -19.4955 -3.11337 42.0328
lradius 36.3783
lwrist 14.4968
lhand -28.4414 16.3541
lfingers 7.12502
lthumb -1.81227 46.3261
rfemur -79.3234 -11.2118 14.3538
rtibia 115.732
rfoot -8.749 0.942729
rtoes 18.7324
lfemur -5.15939 -6.68553 -17.3192
ltibia 30.4819
lfoot 14.5083 12.3038
ltoes -11.0401
197
root 3.41583 18.985 -21.9745 -200.281 66.3499 157.951
lowerback 13.731 -0.770891 -9.18903
upperback 2.92517 -2.19322 -2.0744
thorax -4.3128 -0.886998 3.34994
lowerneck -7.99039 -12.5125 -12.8035
upperneck -1.68676 -16.188 22.2394
head 3.86209 -7.44401 7.68076
rclavicle 3.20851e-015 3.76448e-015
rhumerus -24.199 54.0077 -59.7564
rradius 81.3049
rwrist -10.9483
rhand -12.4806 29.192
rfingers 7.12502
rthumb 13.5939 -0.344218
lclavicle 3.20851e-015 3.76448e-015
lhumerus -19.9023 -3.33847 42.1542
lradius 36.2096
lwrist 14.6648
lhand -28.3863 16.585
lfingers 7.12502
lthumb -1.75896 46.5575
rfemur -80.1309 -10.2451 14.441
rtibia 114.05
rfoot -8.36001 -0.178328
rtoes 20.6762
lfemur -5.39481 -6.3852 -17.169
ltibia 31.558
lfoot 14.6915 13.133
ltoes -9.39144
